<svg width="109" height="42" viewBox="0 0 109 42" fill="none" xmlns="http://www.w3.org/2000/svg">
    <path d="M4.21644 33.1037C1.88777 30.7462 1.91115 26.9473 4.26867 24.6186L7.66693 21.2619L20.136 33.8855L16.7378 37.2422C14.3803 39.5709 10.5814 39.5475 8.25267 37.19L4.21644 33.1037Z"
          fill="#890B0D"/>
    <path d="M37.1544 8.24986C39.5034 10.5871 39.5129 14.3861 37.1756 16.7351L33.7959 20.1318L21.2514 7.64991L24.6311 4.25325C26.9684 1.90425 30.7674 1.89474 33.1164 4.23202L37.1544 8.24986Z"
          fill="#890B0D"/>
    <path fill-rule="evenodd" clip-rule="evenodd"
          d="M15.5774 4.09659C13.6269 2.14186 10.4611 2.13843 8.50638 4.08894L4.13513 8.45074C2.1804 10.4012 2.17698 13.5671 4.12748 15.5218L25.9128 37.3543C27.8633 39.309 31.0291 39.3124 32.9838 37.3619L37.3551 33.0001C39.3098 31.0496 39.3132 27.8838 37.3627 25.9291L15.5774 4.09659ZM24.8081 22.4522C25.873 22.4522 26.7364 21.5889 26.7364 20.5239C26.7364 19.459 25.873 18.5957 24.8081 18.5957C23.7431 18.5957 22.8798 19.459 22.8798 20.5239C22.8798 21.5889 23.7431 22.4522 24.8081 22.4522Z"
          fill="#D12220"/>
    <path d="M48.245 19V8.5H50.255L54.725 15.91H53.66L58.055 8.5H60.05L60.08 19H57.8L57.785 11.995H58.205L54.695 17.89H53.6L50.015 11.995H50.525V19H48.245ZM66.4112 19.12C65.4912 19.12 64.6812 18.94 63.9812 18.58C63.2912 18.22 62.7562 17.73 62.3762 17.11C61.9962 16.48 61.8062 15.765 61.8062 14.965C61.8062 14.155 61.9912 13.44 62.3612 12.82C62.7412 12.19 63.2562 11.7 63.9062 11.35C64.5562 10.99 65.2912 10.81 66.1112 10.81C66.9012 10.81 67.6112 10.98 68.2412 11.32C68.8812 11.65 69.3862 12.13 69.7562 12.76C70.1262 13.38 70.3112 14.125 70.3112 14.995C70.3112 15.085 70.3062 15.19 70.2962 15.31C70.2862 15.42 70.2762 15.525 70.2662 15.625H63.7112V14.26H69.0362L68.1362 14.665C68.1362 14.245 68.0512 13.88 67.8812 13.57C67.7112 13.26 67.4762 13.02 67.1762 12.85C66.8762 12.67 66.5262 12.58 66.1262 12.58C65.7262 12.58 65.3712 12.67 65.0612 12.85C64.7612 13.02 64.5262 13.265 64.3562 13.585C64.1862 13.895 64.1012 14.265 64.1012 14.695V15.055C64.1012 15.495 64.1962 15.885 64.3862 16.225C64.5862 16.555 64.8612 16.81 65.2112 16.99C65.5712 17.16 65.9912 17.245 66.4712 17.245C66.9012 17.245 67.2762 17.18 67.5962 17.05C67.9262 16.92 68.2262 16.725 68.4962 16.465L69.7412 17.815C69.3712 18.235 68.9062 18.56 68.3462 18.79C67.7862 19.01 67.1412 19.12 66.4112 19.12ZM75.3341 19.12C74.5741 19.12 73.8891 18.95 73.2791 18.61C72.6691 18.26 72.1841 17.775 71.8241 17.155C71.4741 16.535 71.2991 15.805 71.2991 14.965C71.2991 14.115 71.4741 13.38 71.8241 12.76C72.1841 12.14 72.6691 11.66 73.2791 11.32C73.8891 10.98 74.5741 10.81 75.3341 10.81C76.0141 10.81 76.6091 10.96 77.1191 11.26C77.6291 11.56 78.0241 12.015 78.3041 12.625C78.5841 13.235 78.7241 14.015 78.7241 14.965C78.7241 15.905 78.5891 16.685 78.3191 17.305C78.0491 17.915 77.6591 18.37 77.1491 18.67C76.6491 18.97 76.0441 19.12 75.3341 19.12ZM75.7391 17.2C76.1191 17.2 76.4641 17.11 76.7741 16.93C77.0841 16.75 77.3291 16.495 77.5091 16.165C77.6991 15.825 77.7941 15.425 77.7941 14.965C77.7941 14.495 77.6991 14.095 77.5091 13.765C77.3291 13.435 77.0841 13.18 76.7741 13C76.4641 12.82 76.1191 12.73 75.7391 12.73C75.3491 12.73 74.9991 12.82 74.6891 13C74.3791 13.18 74.1291 13.435 73.9391 13.765C73.7591 14.095 73.6691 14.495 73.6691 14.965C73.6691 15.425 73.7591 15.825 73.9391 16.165C74.1291 16.495 74.3791 16.75 74.6891 16.93C74.9991 17.11 75.3491 17.2 75.7391 17.2ZM77.8541 19V17.35L77.8991 14.95L77.7491 12.565V7.87H80.0891V19H77.8541ZM82.2548 19V10.93H84.5948V19H82.2548ZM83.4248 9.805C82.9948 9.805 82.6448 9.68 82.3748 9.43C82.1048 9.18 81.9698 8.87 81.9698 8.5C81.9698 8.13 82.1048 7.82 82.3748 7.57C82.6448 7.32 82.9948 7.195 83.4248 7.195C83.8548 7.195 84.2048 7.315 84.4748 7.555C84.7448 7.785 84.8798 8.085 84.8798 8.455C84.8798 8.845 84.7448 9.17 84.4748 9.43C84.2148 9.68 83.8648 9.805 83.4248 9.805ZM90.6665 19.12C89.7965 19.12 89.0215 18.945 88.3415 18.595C87.6615 18.235 87.1265 17.74 86.7365 17.11C86.3565 16.48 86.1665 15.765 86.1665 14.965C86.1665 14.155 86.3565 13.44 86.7365 12.82C87.1265 12.19 87.6615 11.7 88.3415 11.35C89.0215 10.99 89.7965 10.81 90.6665 10.81C91.5165 10.81 92.2565 10.99 92.8865 11.35C93.5165 11.7 93.9815 12.205 94.2815 12.865L92.4665 13.84C92.2565 13.46 91.9915 13.18 91.6715 13C91.3615 12.82 91.0215 12.73 90.6515 12.73C90.2515 12.73 89.8915 12.82 89.5715 13C89.2515 13.18 88.9965 13.435 88.8065 13.765C88.6265 14.095 88.5365 14.495 88.5365 14.965C88.5365 15.435 88.6265 15.835 88.8065 16.165C88.9965 16.495 89.2515 16.75 89.5715 16.93C89.8915 17.11 90.2515 17.2 90.6515 17.2C91.0215 17.2 91.3615 17.115 91.6715 16.945C91.9915 16.765 92.2565 16.48 92.4665 16.09L94.2815 17.08C93.9815 17.73 93.5165 18.235 92.8865 18.595C92.2565 18.945 91.5165 19.12 90.6665 19.12ZM100.579 19V17.425L100.429 17.08V14.26C100.429 13.76 100.274 13.37 99.9638 13.09C99.6638 12.81 99.1988 12.67 98.5688 12.67C98.1388 12.67 97.7138 12.74 97.2938 12.88C96.8838 13.01 96.5338 13.19 96.2438 13.42L95.4038 11.785C95.8438 11.475 96.3738 11.235 96.9938 11.065C97.6138 10.895 98.2438 10.81 98.8838 10.81C100.114 10.81 101.069 11.1 101.749 11.68C102.429 12.26 102.769 13.165 102.769 14.395V19H100.579ZM98.1188 19.12C97.4888 19.12 96.9488 19.015 96.4988 18.805C96.0488 18.585 95.7038 18.29 95.4638 17.92C95.2238 17.55 95.1038 17.135 95.1038 16.675C95.1038 16.195 95.2188 15.775 95.4488 15.415C95.6888 15.055 96.0638 14.775 96.5738 14.575C97.0838 14.365 97.7488 14.26 98.5688 14.26H100.714V15.625H98.8238C98.2738 15.625 97.8938 15.715 97.6838 15.895C97.4838 16.075 97.3838 16.3 97.3838 16.57C97.3838 16.87 97.4988 17.11 97.7288 17.29C97.9688 17.46 98.2938 17.545 98.7038 17.545C99.0938 17.545 99.4438 17.455 99.7538 17.275C100.064 17.085 100.289 16.81 100.429 16.45L100.789 17.53C100.619 18.05 100.309 18.445 99.8588 18.715C99.4088 18.985 98.8288 19.12 98.1188 19.12ZM104.887 19V7.87H107.227V19H104.887Z"
          fill="#72000B"/>
    <path d="M48.245 34V23.5H52.79C53.73 23.5 54.54 23.655 55.22 23.965C55.9 24.265 56.425 24.7 56.795 25.27C57.165 25.84 57.35 26.52 57.35 27.31C57.35 28.09 57.165 28.765 56.795 29.335C56.425 29.905 55.9 30.345 55.22 30.655C54.54 30.955 53.73 31.105 52.79 31.105H49.595L50.675 30.01V34H48.245ZM50.675 30.28L49.595 29.125H52.655C53.405 29.125 53.965 28.965 54.335 28.645C54.705 28.325 54.89 27.88 54.89 27.31C54.89 26.73 54.705 26.28 54.335 25.96C53.965 25.64 53.405 25.48 52.655 25.48H49.595L50.675 24.325V30.28ZM63.7966 34V32.425L63.6466 32.08V29.26C63.6466 28.76 63.4916 28.37 63.1816 28.09C62.8816 27.81 62.4166 27.67 61.7866 27.67C61.3566 27.67 60.9316 27.74 60.5116 27.88C60.1016 28.01 59.7516 28.19 59.4616 28.42L58.6216 26.785C59.0616 26.475 59.5916 26.235 60.2116 26.065C60.8316 25.895 61.4616 25.81 62.1016 25.81C63.3316 25.81 64.2866 26.1 64.9666 26.68C65.6466 27.26 65.9866 28.165 65.9866 29.395V34H63.7966ZM61.3366 34.12C60.7066 34.12 60.1666 34.015 59.7166 33.805C59.2666 33.585 58.9216 33.29 58.6816 32.92C58.4416 32.55 58.3216 32.135 58.3216 31.675C58.3216 31.195 58.4366 30.775 58.6666 30.415C58.9066 30.055 59.2816 29.775 59.7916 29.575C60.3016 29.365 60.9666 29.26 61.7866 29.26H63.9316V30.625H62.0416C61.4916 30.625 61.1116 30.715 60.9016 30.895C60.7016 31.075 60.6016 31.3 60.6016 31.57C60.6016 31.87 60.7166 32.11 60.9466 32.29C61.1866 32.46 61.5116 32.545 61.9216 32.545C62.3116 32.545 62.6616 32.455 62.9716 32.275C63.2816 32.085 63.5066 31.81 63.6466 31.45L64.0066 32.53C63.8366 33.05 63.5266 33.445 63.0766 33.715C62.6266 33.985 62.0466 34.12 61.3366 34.12ZM73.0094 25.81C73.6494 25.81 74.2194 25.94 74.7194 26.2C75.2294 26.45 75.6294 26.84 75.9194 27.37C76.2094 27.89 76.3544 28.56 76.3544 29.38V34H74.0144V29.74C74.0144 29.09 73.8694 28.61 73.5794 28.3C73.2994 27.99 72.8994 27.835 72.3794 27.835C72.0094 27.835 71.6744 27.915 71.3744 28.075C71.0844 28.225 70.8544 28.46 70.6844 28.78C70.5244 29.1 70.4444 29.51 70.4444 30.01V34H68.1044V25.93H70.3394V28.165L69.9194 27.49C70.2094 26.95 70.6244 26.535 71.1644 26.245C71.7044 25.955 72.3194 25.81 73.0094 25.81ZM81.7755 34.12C80.8255 34.12 80.0855 33.88 79.5555 33.4C79.0255 32.91 78.7605 32.185 78.7605 31.225V24.145H81.1005V31.195C81.1005 31.535 81.1905 31.8 81.3705 31.99C81.5505 32.17 81.7955 32.26 82.1055 32.26C82.4755 32.26 82.7905 32.16 83.0505 31.96L83.6805 33.61C83.4405 33.78 83.1505 33.91 82.8105 34C82.4805 34.08 82.1355 34.12 81.7755 34.12ZM77.5155 27.91V26.11H83.1105V27.91H77.5155ZM84.9941 34V25.93H87.2291V28.21L86.9141 27.55C87.1541 26.98 87.5391 26.55 88.0691 26.26C88.5991 25.96 89.2441 25.81 90.0041 25.81V27.97C89.9041 27.96 89.8141 27.955 89.7341 27.955C89.6541 27.945 89.5691 27.94 89.4791 27.94C88.8391 27.94 88.3191 28.125 87.9191 28.495C87.5291 28.855 87.3341 29.42 87.3341 30.19V34H84.9941ZM92.6938 37.03C92.2738 37.03 91.8588 36.965 91.4488 36.835C91.0388 36.705 90.7038 36.525 90.4437 36.295L91.2988 34.63C91.4788 34.79 91.6838 34.915 91.9138 35.005C92.1538 35.095 92.3888 35.14 92.6188 35.14C92.9488 35.14 93.2088 35.06 93.3988 34.9C93.5988 34.75 93.7788 34.495 93.9388 34.135L94.3588 33.145L94.5388 32.89L97.4338 25.93H99.6838L96.0388 34.495C95.7788 35.145 95.4788 35.655 95.1388 36.025C94.8088 36.395 94.4388 36.655 94.0288 36.805C93.6288 36.955 93.1838 37.03 92.6938 37.03ZM94.0738 34.315L90.4737 25.93H92.8888L95.6788 32.68L94.0738 34.315Z"
          fill="black"/>
</svg>
