<svg width="65" height="65" viewBox="0 0 65 65" fill="none" xmlns="http://www.w3.org/2000/svg">
    <path d="M4.21645 49.1383C1.88777 46.7808 1.91115 42.9818 4.26868 40.6532L11.9303 33.0852L31.3333 52.7285L23.6716 60.2964C21.3141 62.6251 17.5152 62.6017 15.1865 60.2442L4.21645 49.1383Z"
          fill="#890B0D"/>
    <path d="M60.1802 15.1908C62.5292 17.528 62.5387 21.327 60.2015 23.676L52.589 31.3266L33.0688 11.9039L40.6813 4.25325C43.0185 1.90425 46.8175 1.89474 49.1665 4.23202L60.1802 15.1908Z"
          fill="#890B0D"/>
    <path fill-rule="evenodd" clip-rule="evenodd"
          d="M22.2759 4.40646C20.3254 2.45173 17.1595 2.44831 15.2048 4.39882L4.46646 15.1139C2.51173 17.0644 2.5083 20.2303 4.45881 22.185L42.2862 60.0944C44.2367 62.0491 47.4026 62.0525 49.3573 60.102L60.0956 49.3869C62.0504 47.4364 62.0538 44.2706 60.1033 42.3158L22.2759 4.40646ZM38.6028 34.9363C40.2596 34.9363 41.6028 33.5932 41.6028 31.9363C41.6028 30.2795 40.2596 28.9363 38.6028 28.9363C36.9459 28.9363 35.6028 30.2795 35.6028 31.9363C35.6028 33.5932 36.9459 34.9363 38.6028 34.9363Z"
          fill="#D12220"/>
</svg>
